# xmcd CD database file
# Copyright (C) 1993-1998 Ti Kan
# 
# Track frame offsets:
#     150
#     28882
#     50937
#     68647
#     95617
#     116485
#     145312
#     172945
#     198205
#     224162
#     249612
#     299215
# 
# Disc length: 4578 seconds
# 
# Revision: 1
# Processed by: cddbd v1.4b41PL1 Copyright (c) Steve Scherf et al.
# Submitted via: DiscPlay 4.0.4
# 
DISCID=c711e00c
DTITLE=Eric Clapton - Living On Blues Power Vol. 1
DYEAR=1900
DGENRE=
TTITLE0=Motherless Children
TTITLE1=Motherless Children
TTITLE2=High Up On A Mountain Top
TTITLE3=High Up On A Mountain Top
TTITLE4=High Up On A Mountain Top
TTITLE5=Why Does Love Got To Be So Sad
TTITLE6=Bell Bottom Blues
TTITLE7=Keep On Growing
TTITLE8=Knockin' On Heavens Door
TTITLE9=Knockin' On Heavens Door
TTITLE10=Knockin' On Heavens Door
TTITLE11=Eyesight To The Blind
EXTD=
EXTT0=
EXTT1=
EXTT2=
EXTT3=
EXTT4=
EXTT5=
EXTT6=
EXTT7=
EXTT8=
EXTT9=
EXTT10=
EXTT11=
PLAYORDER=
